<svg width="50" height="50" viewBox="0 0 50 50" fill="none" xmlns="http://www.w3.org/2000/svg">
<rect width="50" height="50" rx="15" fill="#DE9C8E"/>
<path d="M31 30H32C33.105 30 34 29.105 34 28V25C34 23.895 33.105 23 32 23H31C30.448 23 30 23.448 30 24V29C30 29.552 30.448 30 31 30ZM31 30V31C31 32.105 30.105 33 29 33H26.875M31.5 23V22.5C31.5 18.91 28.59 16 25 16C21.41 16 18.5 18.91 18.5 22.5V23M26.875 33C26.875 32.31 26.315 31.75 25.625 31.75H24.375C23.685 31.75 23.125 32.31 23.125 33C23.125 33.69 23.685 34.25 24.375 34.25H25.625C26.315 34.25 26.875 33.69 26.875 33ZM19 30H18C16.895 30 16 29.105 16 28V25C16 23.895 16.895 23 18 23H19C19.552 23 20 23.448 20 24V29C20 29.552 19.552 30 19 30Z" stroke="white" stroke-width="1.5" stroke-linecap="round" stroke-linejoin="round"/>
</svg>
