<svg width="50" height="50" viewBox="0 0 50 50" fill="none" xmlns="http://www.w3.org/2000/svg">
<rect width="50" height="50" rx="15" fill="#DE9C8E"/>
<path d="M36 32V30.904C36 29.523 34.881 28.404 33.5 28.404H32.699M14 32V30.904C14 29.523 15.119 28.404 16.5 28.404H17.301M30.339 32V30.399C30.339 28.466 28.772 26.899 26.839 26.899H23.16C21.227 26.899 19.66 28.466 19.66 30.399V32M33.7925 22.5235C34.5825 23.3136 34.5825 24.5944 33.7925 25.3845C33.0025 26.1745 31.7216 26.1745 30.9316 25.3845C30.1415 24.5944 30.1415 23.3135 30.9316 22.5235C31.7216 21.7335 33.0025 21.7335 33.7925 22.5235ZM27.2026 18.9124C28.4191 20.1288 28.4191 22.1011 27.2026 23.3176C25.9861 24.5341 24.0138 24.5341 22.7973 23.3176C21.5808 22.1012 21.5808 20.1289 22.7973 18.9124C24.0138 17.6959 25.9861 17.6959 27.2026 18.9124ZM19.0685 22.5235C19.8585 23.3136 19.8585 24.5944 19.0685 25.3845C18.2784 26.1745 16.9976 26.1745 16.2075 25.3845C15.4175 24.5944 15.4175 23.3135 16.2075 22.5235C16.9976 21.7335 18.2785 21.7335 19.0685 22.5235Z" stroke="white" stroke-width="1.5" stroke-linecap="round" stroke-linejoin="round"/>
</svg>
