<svg width="146" height="50" viewBox="0 0 146 50" fill="none" xmlns="http://www.w3.org/2000/svg">
<g clip-path="url(#clip0_138_488)">
<path fill-rule="evenodd" clip-rule="evenodd" d="M17.1032 47.1527L9.96035 35.1805L17.5041 27.049H11.4141L4.92364 34.1641V27.049H0V47.1527H4.92364V40.8564L6.6306 38.9077L11.2978 47.1527H17.1032Z" fill="white"/>
<path fill-rule="evenodd" clip-rule="evenodd" d="M57.9325 47.1527V27.049H41.1511V47.1527H46.6303V31.4533H52.4533V47.1527H57.9325Z" fill="white"/>
<path fill-rule="evenodd" clip-rule="evenodd" d="M79.7582 47.1527V27.049H75.0464L68.0249 38.0041V27.049H62.6362V47.1527H67.348L74.3689 36.197V47.1527H79.7582Z" fill="white"/>
<path fill-rule="evenodd" clip-rule="evenodd" d="M122.319 37.1005V35.322C122.319 32.4136 121.651 30.6064 120.132 29.1379C118.554 27.6132 116.55 26.8793 114.06 26.8793C111.601 26.8793 109.597 27.6132 108.048 29.1379C106.348 30.7761 105.863 32.4697 105.863 36.3946V37.6654C105.863 40.1785 105.832 42.9173 108.048 45.063C109.627 46.5877 111.601 47.3223 114.121 47.3223C116.581 47.3223 118.585 46.5877 120.132 45.063C122.441 42.8044 122.319 40.0089 122.319 37.1005ZM117.005 37.6374C117.005 40.2066 116.793 41.3359 116.216 42.0137C115.731 42.5787 114.941 42.9173 114.091 42.9173C113.24 42.9173 112.451 42.5787 111.965 42.0137C111.389 41.3359 111.176 40.2066 111.176 37.6374V36.2536C111.176 34.3617 111.389 32.8651 111.965 32.1592C112.451 31.5948 113.21 31.2843 114.091 31.2843C114.971 31.2843 115.731 31.5948 116.216 32.1592C116.793 32.8651 117.005 34.3617 117.005 36.2536V37.6374Z" fill="white"/>
<path fill-rule="evenodd" clip-rule="evenodd" d="M146 47.1527V27.049H141.042L136.431 35.9151L131.819 27.049H126.862V47.1527H131.905V37.5246L134.817 42.4939H138.045L140.956 37.5246V47.1527H146Z" fill="white"/>
<path fill-rule="evenodd" clip-rule="evenodd" d="M95.632 4.51159L108.866 17.7807L108.984 17.6576C108.193 16.8104 107.412 15.9522 106.607 15.1178C103.816 12.2241 101.014 9.33942 98.2183 6.44963C97.4704 5.67665 96.7204 4.90535 95.9888 4.11719C95.8581 3.97638 95.7451 3.89913 95.632 3.88715C95.519 3.89913 95.4059 3.97638 95.2752 4.11719C94.5437 4.90535 93.7937 5.67665 93.0457 6.44963C90.2498 9.33942 87.4485 12.2241 84.6566 15.1178C83.8516 15.9522 83.0714 16.8104 82.2799 17.6576L82.3982 17.7807L95.632 4.51159ZM102.583 6.97992C100.571 4.8595 98.5671 2.73121 96.5455 0.619846C95.749 -0.211848 95.5194 -0.202814 94.7046 0.624222C91.7753 3.59792 88.8445 6.57026 85.932 9.56008C84.9065 10.6129 83.9166 11.7008 82.938 12.7971C81.4849 14.4246 80.0509 16.0691 78.6199 17.7161C77.9963 18.4337 77.4006 19.1752 76.7922 19.9059L76.9293 20.0435C83.4804 14.306 89.7668 8.29648 95.6787 1.86321C95.8911 2.06473 96.043 2.20345 96.1891 2.34832C98.1096 4.25252 100.029 6.15777 101.949 8.06251C102.271 8.38219 102.565 8.74084 102.927 9.00612C103.138 9.15992 103.498 9.27434 103.719 9.19849C103.889 9.13993 104.03 8.76008 104.037 8.51879V8.02078V6.03654H105.004C105.593 6.02881 106.204 6.03654 106.888 6.03654C106.888 8.07338 106.898 10.0272 106.88 11.9808C106.876 12.4873 107.021 12.8752 107.405 13.2229C108.175 13.9196 108.917 14.6464 109.657 15.3747C111.046 16.741 112.423 18.1183 113.809 19.4878C114.011 19.6872 114.231 19.8682 114.443 20.0577C114.49 19.9289 114.472 19.8777 114.439 19.8417C112.349 17.6143 110.263 15.3845 108.164 13.1655C107.724 12.6992 107.457 12.2311 107.49 11.5348C107.582 9.58201 107.582 7.62515 107.619 5.66993C107.626 5.30187 107.461 5.11191 107.076 5.10976C105.919 5.10329 104.761 5.09879 103.604 5.07287C103.192 5.06365 103.033 5.22528 103.008 5.58175H103.004V7.3843C102.839 7.2292 102.641 7.04105 102.583 6.97992ZM95.3671 19.9792V16.6458H91.998V19.9792H95.3671ZM99.2596 16.6483H95.9885V19.9862H99.2596V16.6483ZM95.9842 12.7151V16.0416H99.266V12.7151H95.9842ZM95.3581 16.0586V12.7104H92.0114V16.0586H95.3581Z" fill="white"/>
<path fill-rule="evenodd" clip-rule="evenodd" d="M90.2038 42.7477C91.2804 39.8112 92.0667 36.79 92.0667 32.0183V31.4533H95.414V42.7477H90.2038ZM87.8168 47.1527H97.9764V50H102.867V42.7477H100.509V27.049H87.0601V27.8958C87.0601 35.0115 86.419 38.9925 84.9634 42.7477H82.9265V50H87.8168V47.1527Z" fill="white"/>
<path fill-rule="evenodd" clip-rule="evenodd" d="M19.2368 27.049L26.3231 41.76L23.7387 47.1528H24.3879L28.5479 47.1502L38.3147 27.049H33.3031L28.9778 36.2194L24.4162 27.049L19.2368 27.049Z" fill="white"/>
</g>
<defs>
<clipPath id="clip0_138_488">
<rect width="146" height="50" fill="white"/>
</clipPath>
</defs>
</svg>
